<?xml version="1.0" encoding="UTF-8" standalone="no"?>
<!-- Created with Inkscape (http://www.inkscape.org/) -->

<svg
   width="200.55409mm"
   height="183.09166mm"
   viewBox="0 0 200.5541 183.09166"
   version="1.1"
   id="svg1304"
   inkscape:version="1.1.1 (c3084ef, 2021-09-22)"
   sodipodi:docname="disconnected.svg"
   xmlns:inkscape="http://www.inkscape.org/namespaces/inkscape"
   xmlns:sodipodi="http://sodipodi.sourceforge.net/DTD/sodipodi-0.dtd"
   xmlns="http://www.w3.org/2000/svg"
   xmlns:svg="http://www.w3.org/2000/svg">
  <sodipodi:namedview
     id="namedview1306"
     pagecolor="#ffffff"
     bordercolor="#666666"
     borderopacity="1.0"
     inkscape:pageshadow="2"
     inkscape:pageopacity="0.0"
     inkscape:pagecheckerboard="0"
     inkscape:document-units="mm"
     showgrid="false"
     inkscape:zoom="1.3262129"
     inkscape:cx="341.1971"
     inkscape:cy="259.00819"
     inkscape:window-width="1792"
     inkscape:window-height="1075"
     inkscape:window-x="2626"
     inkscape:window-y="1103"
     inkscape:window-maximized="0"
     inkscape:current-layer="layer1" />
  <defs
     id="defs1301" />
  <g
     inkscape:label="Capa 1"
     inkscape:groupmode="layer"
     id="layer1"
     transform="translate(-54.836345,-116.89163)">
    <path
       style="fill:none;stroke:#6f7374;stroke-width:0.459407px;stroke-linecap:butt;stroke-linejoin:miter;stroke-opacity:1"
       d="m 118.44877,244.58514 c -0.85333,-1.50916 -1.76085,-2.97876 -3.19611,-4.06332 v 0"
       id="path3308"
       sodipodi:nodetypes="ccc" />
    <path
       style="fill:none;stroke:#6f7374;stroke-width:0.459407px;stroke-linecap:butt;stroke-linejoin:miter;stroke-opacity:1"
       d="m 192.48082,244.0891 c 0.71868,-1.56576 1.58562,-2.6446 2.50016,-3.56728"
       id="path3343"
       sodipodi:nodetypes="cc" />
    <path
       style="fill:#cbcfd2;fill-opacity:1;stroke:#6f7374;stroke-width:0.459407px;stroke-linecap:butt;stroke-linejoin:miter;stroke-opacity:1"
       d="m 166.94992,236.91096 c 1.66884,-0.69175 0.71006,-3.0163 0.71006,-3.0163 -4.32523,-11.282 3.22547,-20.66132 3.22547,-20.66132 12.54315,-11.93148 22.58171,-2.29712 22.58171,-2.29712 15.49872,15.70009 1.51382,29.5856 1.51382,29.5856 13.48029,6.86387 26.52805,0.47337 26.52805,0.47337 27.321,-12.22871 23.50039,-41.73544 23.50039,-41.73544 -3.53227,-37.00174 -36.22727,-37.258 -36.22727,-37.258 H 103.38568 c 0,0 -27.49256,-2.18948 -36.935968,29.3685 0,0 -5.406533,16.64684 4.68566,34.00374 10.092193,17.35689 26.311788,18.06695 26.311788,18.06695 0,0 11.96646,1.5779 17.80551,-2.91912 0,0 -8.72254,-7.41612 -4.25314,-22.01169 0,0 4.90193,-12.38653 17.73342,-10.9664 12.83151,1.42011 14.84995,14.91114 14.84995,14.91114 0,0 1.658,5.04929 -0.93714,12.38651 0,0 -0.67737,1.40088 0.62232,2.06958 z"
       id="path2307"
       sodipodi:nodetypes="ccccccccccscccscccc" />
    <ellipse
       style="display:inline;fill:#ffffff;fill-opacity:1;fill-rule:evenodd;stroke:#ffffff;stroke-width:0.381996;stroke-miterlimit:4;stroke-dasharray:none;stroke-opacity:1"
       id="path20891"
       cx="151.68974"
       cy="216.20294"
       rx="0.7622782"
       ry="0.82234967" />
    <ellipse
       style="display:inline;fill:#1c1c1c;fill-opacity:1;fill-rule:evenodd;stroke:#000000;stroke-width:0.381996;stroke-miterlimit:4;stroke-dasharray:none;stroke-opacity:1"
       id="path20891-7"
       cx="155.09821"
       cy="216.20294"
       rx="0.7622782"
       ry="0.82234967" />
    <ellipse
       style="display:inline;fill:#1c1c1c;fill-opacity:1;fill-rule:evenodd;stroke:#000000;stroke-width:0.381996;stroke-miterlimit:4;stroke-dasharray:none;stroke-opacity:1"
       id="path20891-4"
       cx="158.72447"
       cy="216.20207"
       rx="0.7622782"
       ry="0.82234967" />
    <ellipse
       style="fill:#000000;fill-opacity:1;fill-rule:evenodd;stroke:#000000;stroke-width:0.379613;stroke-miterlimit:4;stroke-dasharray:none;stroke-opacity:1"
       id="path6182"
       cx="194.51006"
       cy="192.866"
       rx="6.7563291"
       ry="7.2987614" />
    <ellipse
       style="fill:#000000;fill-opacity:1;fill-rule:evenodd;stroke:#000000;stroke-width:0.379613;stroke-miterlimit:4;stroke-dasharray:none;stroke-opacity:1"
       id="path6182-0"
       cx="225.78625"
       cy="193.00458"
       rx="6.7563291"
       ry="7.2987614" />
    <ellipse
       style="fill:#000000;fill-opacity:1;fill-rule:evenodd;stroke:#000000;stroke-width:0.379613;stroke-miterlimit:4;stroke-dasharray:none;stroke-opacity:1"
       id="path6182-08"
       cx="210.12155"
       cy="207.98274"
       rx="6.7563291"
       ry="7.2987614" />
    <ellipse
       style="display:inline;fill:#484b4a;fill-opacity:1;fill-rule:evenodd;stroke:#484b4a;stroke-width:0.320656;stroke-miterlimit:4;stroke-dasharray:none;stroke-opacity:1"
       id="path6182-9"
       cx="210.01039"
       cy="228.75537"
       rx="5.7359076"
       ry="6.1341538" />
    <ellipse
       style="display:inline;fill:#bfc7c9;fill-opacity:1;fill-rule:evenodd;stroke:#484b4a;stroke-width:0.238873;stroke-miterlimit:4;stroke-dasharray:none;stroke-opacity:1"
       id="path6182-9-2"
       cx="210.01546"
       cy="228.82501"
       rx="4.2457881"
       ry="4.5989432" />
    <ellipse
       style="display:inline;fill:#dfdfdf;fill-opacity:1;fill-rule:evenodd;stroke:#000000;stroke-width:0.238873;stroke-miterlimit:4;stroke-dasharray:none;stroke-opacity:1"
       id="path6182-9-2-7"
       cx="100.20674"
       cy="228.48758"
       rx="4.2457881"
       ry="4.5989432" />
    <ellipse
       style="display:inline;fill:#000000;fill-opacity:1;fill-rule:evenodd;stroke:#000000;stroke-width:0.379613;stroke-miterlimit:4;stroke-dasharray:none;stroke-opacity:1"
       id="path6182-3"
       cx="210.12155"
       cy="178.02165"
       rx="6.7563291"
       ry="7.2987614" />
    <text
       xml:space="preserve"
       style="font-style:normal;font-weight:normal;font-size:7.20272px;line-height:1.25;font-family:sans-serif;fill:#45a2f1;fill-opacity:1;stroke:none;stroke-width:0.180068"
       x="210.71735"
       y="178.84056"
       id="text9949"
       transform="scale(0.91333345,1.0948904)"><tspan
         sodipodi:role="line"
         id="tspan9947"
         style="fill:#45a2f1;fill-opacity:1;stroke-width:0.180068"
         x="210.71735"
         y="178.84056">Y</tspan></text>
    <text
       xml:space="preserve"
       style="font-style:normal;font-weight:normal;font-size:7.1364px;line-height:1.25;font-family:sans-serif;display:inline;fill:#ef7ded;fill-opacity:1;stroke:none;stroke-width:0.17841"
       x="229.77432"
       y="163.64427"
       id="text13027"
       transform="scale(0.90492621,1.1050625)"><tspan
         sodipodi:role="line"
         id="tspan13025"
         style="fill:#ef7ded;fill-opacity:1;stroke-width:0.17841"
         x="229.77432"
         y="163.64427">X</tspan></text>
    <text
       xml:space="preserve"
       style="font-style:normal;font-weight:normal;font-size:6.5578px;line-height:1.25;font-family:sans-serif;fill:#20b58c;fill-opacity:1;stroke:none;stroke-width:0.163945"
       x="263.5636"
       y="166.32642"
       id="text14953"
       transform="scale(0.84925143,1.1775076)"><tspan
         sodipodi:role="line"
         id="tspan14951"
         style="fill:#20b58c;fill-opacity:1;stroke-width:0.163945"
         x="263.5636"
         y="166.32642">A</tspan></text>
    <text
       xml:space="preserve"
       style="font-style:normal;font-weight:normal;font-size:6.88967px;line-height:1.25;font-family:sans-serif;fill:#fa5f58;fill-opacity:1;stroke:none;stroke-width:0.172244"
       x="237.95496"
       y="184.21941"
       id="text16761"
       transform="scale(0.87364047,1.1446356)"><tspan
         sodipodi:role="line"
         id="tspan16759"
         style="fill:#fa5f58;fill-opacity:1;stroke-width:0.172244"
         x="237.95496"
         y="184.21941">B</tspan></text>
    <path
       style="fill:#020202;fill-opacity:1;stroke:#000000;stroke-width:0.459407px;stroke-linecap:butt;stroke-linejoin:miter;stroke-opacity:0.770161"
       d="m 96.242422,176.15092 h 7.775758 c 0,0 1.21939,-0.0774 1.21939,1.33455 0,1.4119 0,9.10968 0,9.10968 0,0 0.0177,1.08308 1.04266,1.08308 1.02498,0 8.02318,0 8.02318,0 0,0 1.43144,-0.0387 1.43144,1.56665 0,1.60533 0,8.02657 0,8.02657 0,0 0.17672,1.1895 -1.08685,1.1895 -1.26356,0 -8.29708,0 -8.29708,0 0,0 -1.20613,0.54154 -1.20613,1.32001 0,0.77851 0,9.24991 0,9.24991 0,0 0.10604,1.21608 -1.11114,1.21608 -1.21718,0 -7.579158,0 -7.579158,0 0,0 -1.28013,-0.38682 -1.28013,-1.40101 0,-1.01423 0,-9.21488 0,-9.21488 0,0 0.106041,-1.0982 -1.003452,-1.0982 -1.109481,0 -8.496457,0 -8.496457,0 0,0 -0.908363,0.13852 -0.908363,-1.72191 0,-1.86044 0,-7.8175 0,-7.8175 0,0 0.10604,-1.48348 1.355464,-1.48348 1.249431,0 8.000208,0 8.000208,0 0,0 1.141894,0.16797 1.141894,-0.72155 0,-0.88956 0,-9.51571 0,-9.51571 0,0 0.377913,-1.12177 0.978766,-1.12179 z"
       id="path20560" />
    <ellipse
       style="fill:#020202;fill-opacity:1;fill-rule:evenodd;stroke:#4b4f52;stroke-width:0.436485;stroke-miterlimit:4;stroke-dasharray:none;stroke-opacity:1"
       id="path20683"
       cx="100.27167"
       cy="193.15176"
       rx="3.685117"
       ry="4.0524802" />
    <path
       style="display:inline;fill:#b0b2b1;fill-opacity:1;stroke:#5d5f5e;stroke-width:0.459407px;stroke-linecap:butt;stroke-linejoin:miter;stroke-opacity:1"
       d="m 152.60687,222.1959 h 4.80179 c 0,0 1.73178,0 2.03354,2.22559 0.30176,2.22559 -0.95788,2.87221 -1.53219,2.90444 -2.37158,0.13325 -4.13441,0.32216 -5.32939,0 -0.85895,-0.23155 -1.75802,-0.73628 -1.73178,-2.20086 0.0262,-1.46459 0.50243,-2.56098 1.75803,-2.92917 z"
       id="path21320"
       sodipodi:nodetypes="ccssssc" />
    <path
       sodipodi:type="star"
       style="display:inline;opacity:1;fill:#636469;fill-opacity:1;fill-rule:evenodd;stroke:#4b4f52;stroke-width:0.831496;stroke-miterlimit:4;stroke-dasharray:none;stroke-opacity:1"
       id="path22618"
       inkscape:flatsided="true"
       sodipodi:sides="3"
       sodipodi:cx="260.81345"
       sodipodi:cy="376.8736"
       sodipodi:r1="8.0762043"
       sodipodi:r2="4.0381021"
       sodipodi:arg1="2.6167969"
       sodipodi:arg2="3.6639944"
       inkscape:rounded="0"
       inkscape:randomized="0"
       transform="matrix(0.43913922,0,0,0.48061153,-14.178388,1.1182491)"
       inkscape:transform-center-x="-0.0021222231"
       inkscape:transform-center-y="-0.96836622"
       d="m 253.82409,380.92007 6.97969,-12.12267 7.00869,12.10592 z" />
    <path
       sodipodi:type="star"
       style="display:inline;opacity:1;fill:#636469;fill-opacity:1;fill-rule:evenodd;stroke:#4b4f52;stroke-width:0.831496;stroke-miterlimit:4;stroke-dasharray:none;stroke-opacity:1"
       id="path22618-8"
       inkscape:flatsided="true"
       sodipodi:sides="3"
       sodipodi:cx="260.81345"
       sodipodi:cy="376.8736"
       sodipodi:r1="8.0762043"
       sodipodi:r2="4.0381021"
       sodipodi:arg1="2.6167969"
       sodipodi:arg2="3.6639944"
       inkscape:rounded="0"
       inkscape:randomized="0"
       transform="matrix(0.43913922,0,0,-0.48061153,-14.261494,384.66359)"
       inkscape:transform-center-x="-0.0021226638"
       inkscape:transform-center-y="0.96836941"
       d="m 253.82409,380.92007 6.97969,-12.12267 7.00869,12.10592 z" />
    <path
       sodipodi:type="star"
       style="display:inline;opacity:1;fill:#636469;fill-opacity:1;fill-rule:evenodd;stroke:#4b4f52;stroke-width:0.831496;stroke-miterlimit:4;stroke-dasharray:none;stroke-opacity:1"
       id="path22618-1"
       inkscape:flatsided="true"
       sodipodi:sides="3"
       sodipodi:cx="260.81345"
       sodipodi:cy="376.8736"
       sodipodi:r1="8.0762043"
       sodipodi:r2="4.0381021"
       sodipodi:arg1="2.6167969"
       sodipodi:arg2="3.6639944"
       inkscape:rounded="0"
       inkscape:randomized="0"
       transform="matrix(0,0.48061153,-0.43913922,0,275.14133,67.690072)"
       inkscape:transform-center-x="-0.8848054"
       inkscape:transform-center-y="0.0023236062"
       d="m 253.82409,380.92007 6.97969,-12.12267 7.00869,12.10592 z" />
    <path
       sodipodi:type="star"
       style="display:inline;opacity:1;fill:#636469;fill-opacity:1;fill-rule:evenodd;stroke:#4b4f52;stroke-width:0.831496;stroke-miterlimit:4;stroke-dasharray:none;stroke-opacity:1"
       id="path22618-80"
       inkscape:flatsided="true"
       sodipodi:sides="3"
       sodipodi:cx="260.81345"
       sodipodi:cy="376.8736"
       sodipodi:r1="8.0762043"
       sodipodi:r2="4.0381021"
       sodipodi:arg1="2.6167969"
       sodipodi:arg2="3.6639944"
       inkscape:rounded="0"
       inkscape:randomized="0"
       transform="matrix(0,-0.48061153,0.43913922,0,-74.839819,318.38996)"
       inkscape:transform-center-x="0.88480601"
       inkscape:transform-center-y="-0.0023217356"
       d="m 253.82409,380.92007 6.97969,-12.12267 7.00869,12.10592 z" />
    <path
       sodipodi:type="star"
       style="display:inline;opacity:1;fill:#c0c0c0;fill-opacity:1;fill-rule:evenodd;stroke:#878787;stroke-width:0.831496;stroke-miterlimit:4;stroke-dasharray:none;stroke-opacity:1"
       id="path20787"
       inkscape:flatsided="false"
       sodipodi:sides="5"
       sodipodi:cx="253.53586"
       sodipodi:cy="475.7128"
       sodipodi:r1="6.5382366"
       sodipodi:r2="3.2691183"
       sodipodi:arg1="0.92625029"
       sodipodi:arg2="1.5545688"
       inkscape:rounded="0"
       inkscape:randomized="0"
       transform="matrix(0.43009766,0,0,0.4823574,-8.8518464,-0.75070364)"
       inkscape:transform-center-x="0.014102683"
       inkscape:transform-center-y="-0.28608205"
       d="m 257.46426,480.93929 -3.87535,-1.9578 -3.80979,2.08252 0.66442,-4.29068 -3.15788,-2.97979 4.286,-0.69398 1.8581,-3.92414 1.98447,3.86177 4.30626,0.55455 -3.05953,3.08069 z" />
    <ellipse
       style="fill:#000000;fill-opacity:1;fill-rule:evenodd;stroke:#000000;stroke-width:0.558919;stroke-miterlimit:4;stroke-dasharray:none;stroke-opacity:1"
       id="path22763-7-9"
       cx="183.39819"
       cy="224.79451"
       rx="12.450869"
       ry="13.719853" />
    <ellipse
       style="fill:#000000;fill-opacity:1;fill-rule:evenodd;stroke:#000000;stroke-width:0.558919;stroke-miterlimit:4;stroke-dasharray:none;stroke-opacity:1"
       id="path22763-7-9-3"
       cx="126.94474"
       cy="224.72771"
       rx="12.450869"
       ry="13.719853" />
    <ellipse
       style="fill:#2b2d2c;fill-opacity:1;fill-rule:evenodd;stroke:#494b4a;stroke-width:0.341554;stroke-miterlimit:4;stroke-dasharray:none;stroke-opacity:1"
       id="path22763"
       cx="126.79655"
       cy="224.46225"
       rx="7.592236"
       ry="8.4023705" />
    <ellipse
       style="fill:#2b2d2c;fill-opacity:1;fill-rule:evenodd;stroke:#494b4a;stroke-width:0.341554;stroke-miterlimit:4;stroke-dasharray:none;stroke-opacity:1"
       id="path22763-7"
       cx="183.52699"
       cy="224.45027"
       rx="7.592236"
       ry="8.4023705" />
    <path
       style="fill:#dee2e3;fill-opacity:1;stroke:#808485;stroke-width:0.459407px;stroke-linecap:butt;stroke-linejoin:miter;stroke-opacity:1"
       d="m 140.58277,184.97741 h 28.45108 c 0,0 5.6085,-0.1218 6.27706,7.35766 0,0 -0.14854,6.50403 -6.09135,6.86987 0,0 -20.37868,0.31673 -28.78535,0 -2.68643,-0.10125 -5.11584,-1.47015 -5.60851,-6.34141 -0.0555,-0.54789 0.1782,-7.88612 5.75707,-7.88612 z"
       id="path3952"
       sodipodi:nodetypes="scccsss" />
    <path
       style="fill:#c7cdce;fill-opacity:1;stroke:#585a5c;stroke-width:0.399796px;stroke-linecap:butt;stroke-linejoin:miter;stroke-opacity:1"
       d="m 141.89232,186.101 h 26.0418 c 0,0 5.13362,-0.10162 5.74557,6.08777 0,0 -0.13461,5.38131 -5.57556,5.684 0,0 -18.65301,0.26202 -26.3478,0 -2.45893,-0.0834 -4.68265,-1.21641 -5.13358,-5.24674 -0.0506,-0.45329 0.16315,-6.52503 5.26957,-6.52503 z"
       id="path3952-5"
       sodipodi:nodetypes="scccsss" />
    <path
       style="fill:#1c1c1c;fill-opacity:1;stroke:#000000;stroke-width:0.170341px;stroke-linecap:butt;stroke-linejoin:miter;stroke-opacity:1"
       d="m 140.85822,189.44133 h 10.21621 c 0,0 2.01389,-0.0465 2.25391,2.81704 0,0 -0.0528,2.49031 -2.1872,2.63039 h -10.33628 c 0,0 -1.66865,-0.10853 -2.01389,-2.428 -10e-4,-0.009 0.118,-3.01943 2.06725,-3.01943 z"
       id="path3952-0"
       sodipodi:nodetypes="sccccss" />
    <path
       style="fill:#1c1c1c;fill-opacity:1;stroke:#000000;stroke-width:0.170341px;stroke-linecap:butt;stroke-linejoin:miter;stroke-opacity:1"
       d="m 159.01576,189.51763 h 10.21626 c 0,0 2.0139,-0.0465 2.25391,2.81704 0,0 -0.0528,2.4903 -2.18722,2.63037 h -10.3363 c 0,0 -1.66866,-0.10853 -2.0139,-2.428 -0.001,-0.009 0.11801,-3.01941 2.06725,-3.01941 z"
       id="path3952-0-9"
       sodipodi:nodetypes="sccccss" />
    <g
       id="g9249"
       style="display:inline"
       transform="matrix(1.6597388,0,0,1.8164845,-13.855303,-2.9481106)">
      <rect
         style="display:inline;fill:#000000;fill-opacity:0.995951;fill-rule:evenodd;stroke:#000000;stroke-width:0.182376;stroke-miterlimit:4;stroke-dasharray:none;stroke-opacity:1"
         id="rect6444-3-1"
         width="0.62813497"
         height="0.61520404"
         x="133.0062"
         y="127.10019" />
      <rect
         style="display:inline;fill:#000500;fill-opacity:0.995951;fill-rule:evenodd;stroke:#000000;stroke-width:0.182376;stroke-miterlimit:4;stroke-dasharray:none;stroke-opacity:1"
         id="rect6444-5"
         width="0.62813497"
         height="0.61520404"
         x="135.43619"
         y="126.30318" />
      <rect
         style="opacity:1;fill:#000000;fill-opacity:0.995951;fill-rule:evenodd;stroke:#000000;stroke-width:0.182376;stroke-miterlimit:4;stroke-dasharray:none;stroke-opacity:1"
         id="rect6444"
         width="0.62813497"
         height="0.61520404"
         x="133.81619"
         y="126.30305" />
      <rect
         style="display:inline;fill:#000000;fill-opacity:0.995951;fill-rule:evenodd;stroke:#000000;stroke-width:0.182376;stroke-miterlimit:4;stroke-dasharray:none;stroke-opacity:1"
         id="rect6444-3"
         width="0.62813497"
         height="0.61520404"
         x="134.62619"
         y="127.10046" />
      <rect
         style="display:inline;fill:#000000;fill-opacity:0.995951;fill-rule:evenodd;stroke:#000000;stroke-width:0.182376;stroke-miterlimit:4;stroke-dasharray:none;stroke-opacity:1"
         id="rect6444-3-8"
         width="0.62813497"
         height="0.61520404"
         x="133.81619"
         y="127.89919" />
      <rect
         style="display:inline;fill:#000000;fill-opacity:0.995951;fill-rule:evenodd;stroke:#000000;stroke-width:0.182376;stroke-miterlimit:4;stroke-dasharray:none;stroke-opacity:1"
         id="rect6444-3-8-7"
         width="0.62813497"
         height="0.61520404"
         x="135.43619"
         y="127.89919" />
      <rect
         style="display:inline;fill:#000000;fill-opacity:0.995951;fill-rule:evenodd;stroke:#000000;stroke-width:0.182376;stroke-miterlimit:4;stroke-dasharray:none;stroke-opacity:1"
         id="rect6444-3-8-7-1"
         width="0.62813497"
         height="0.61520404"
         x="134.62569"
         y="128.69618" />
      <rect
         style="display:inline;fill:#000000;fill-opacity:0.995951;fill-rule:evenodd;stroke:#000000;stroke-width:0.182376;stroke-miterlimit:4;stroke-dasharray:none;stroke-opacity:1"
         id="rect6444-3-3"
         width="0.62813497"
         height="0.61520404"
         x="136.24619"
         y="127.10019" />
    </g>
    <g
       id="g6077"
       style="fill:#9146ff;fill-opacity:1;stroke:#6441a5;stroke-opacity:1"
       transform="matrix(1.6597388,0,0,1.8164845,-13.855303,-2.9481106)">
      <path
         style="fill:#9146ff;fill-opacity:1;stroke:#6441a5;stroke-width:0.264583px;stroke-linecap:butt;stroke-linejoin:miter;stroke-opacity:1"
         d="m 121.88822,89.088626 c 4.53146,0.0172 9.0642,0.0017 13.59485,0.03934 3.90476,0.407978 7.80127,1.526875 11.2842,3.631613 -0.15051,-0.01254 0.1462,-1.334559 -0.13221,-1.503928 -4.18871,-2.548189 -7.25155,-3.159048 -11.15614,-3.477935 -4.39647,0.0089 -8.79293,0.01783 -13.1894,0.02675 -0.55433,0.15195 -0.41727,0.690839 -0.42805,1.115937 0.0201,0.0326 -0.0385,0.2017 0.0268,0.168226 z"
         id="path4512"
         sodipodi:nodetypes="cccsccccc" />
      <path
         style="fill:#9146ff;fill-opacity:1;stroke:#6441a5;stroke-width:0.264583px;stroke-linecap:butt;stroke-linejoin:miter;stroke-opacity:1"
         d="m 121.86147,88.920401 c 0.0379,0.03383 -0.006,0.08198 0.006,0.119377 0.006,0.01717 0.0143,0.03212 0.0204,0.04885"
         id="path5039" />
    </g>
    <g
       id="g6135"
       style="fill:#9146ff;fill-opacity:1;stroke:#6441a5;stroke-opacity:1"
       transform="matrix(1.6597388,0,0,1.8164845,-13.855303,-2.9481106)">
      <path
         style="fill:#9146ff;fill-opacity:1;stroke:#6441a5;stroke-width:0.26612px;stroke-linecap:butt;stroke-linejoin:miter;stroke-opacity:1"
         d="m 81.712604,89.108384 c -4.494678,0.01754 -8.990625,0.0017 -13.484499,0.04012 -3.873064,0.41611 -7.737946,1.55731 -11.192605,3.704001 0.149289,-0.01279 -0.145013,-1.361161 0.131137,-1.533906 4.15471,-2.598981 7.192688,-3.222016 11.065584,-3.547259 4.360784,0.0091 8.721557,0.01819 13.08234,0.02728 0.549831,0.154979 0.413883,0.704609 0.424576,1.138181 -0.01994,0.03325 0.03819,0.20572 -0.02658,0.171579 z"
         id="path4512-4"
         sodipodi:nodetypes="cccsccccc" />
      <path
         style="fill:#9146ff;fill-opacity:1;stroke:#6441a5;stroke-width:0.26612px;stroke-linecap:butt;stroke-linejoin:miter;stroke-opacity:1"
         d="m 81.739137,88.936806 c -0.03759,0.0345 0.006,0.08361 -0.006,0.121756 -0.006,0.01751 -0.01418,0.03276 -0.02023,0.04982"
         id="path5039-2" />
    </g>
    <path
       style="fill:#9146ff;fill-opacity:1;stroke:#6441a5;stroke-width:0.459407px;stroke-linecap:butt;stroke-linejoin:miter;stroke-opacity:1"
       d="M 84.429874,149.97502 H 117.6552 c 0,0 1.56582,-0.53596 1.56582,-2.96822 0,-2.43224 -4.5265,-30.06461 -16.69815,-29.88459 -12.171651,0.17997 -18.915402,17.7315 -18.915402,17.7315 0,0 -6.899002,15.87842 0.822406,15.12131 z"
       id="path23787"
       sodipodi:nodetypes="ccsscc" />
    <path
       style="display:inline;fill:#9146ff;fill-opacity:1;stroke:#6441a5;stroke-width:0.459407px;stroke-linecap:butt;stroke-linejoin:miter;stroke-opacity:1"
       d="m 225.9552,149.97574 h -33.22532 c 0,0 -1.56582,-0.53595 -1.56582,-2.96821 0,-2.43224 4.52649,-30.06463 16.69815,-29.88459 12.17164,0.17996 18.91539,17.73149 18.91539,17.73149 0,0 6.89901,15.87843 -0.8224,15.12131 z"
       id="path23787-7"
       sodipodi:nodetypes="ccsscc" />
    <path
       style="fill:#9146ff;fill-opacity:1;stroke:#6441a5;stroke-width:0.459407px;stroke-linecap:butt;stroke-linejoin:miter;stroke-opacity:1"
       d="m 192.48082,244.0891 c 14.8985,6.48713 19.86466,25.5979 19.86466,25.5979 1.20163,0.65493 4.05555,35.04268 25.63182,29.45511 21.77662,-5.63946 16.66055,-43.48164 16.66068,-43.48137 0,0 -0.4806,-23.31864 -6.56815,-59.78684 -6.08756,-36.46823 -38.28753,-36.99424 -38.28753,-36.99424 l -110.577128,0.24103 c 0,0 -27.429729,2.33884 -35.095719,28.57981 -7.665991,26.24095 -8.86598,71.62347 -8.86598,71.62347 0,0 -3.757144,41.65602 23.359634,40.04699 0,0 12.281721,2.97972 18.982269,-28.18698 0,0 2.909444,-12.6404 11.814124,-21.42109 0,0 5.0534,-4.73874 7.68296,-5.80318 0,0 8.64667,5.41643 16.74994,1.22212 8.28491,-4.28831 9.43568,-8.57598 9.43568,-8.27087 h 23.68184 c 0,0 3.99669,6.98558 11.87076,9.13998 7.87405,2.15442 13.66014,-1.96184 13.66014,-1.96184 z"
       id="path903"
       sodipodi:nodetypes="ccscsccscccccsccsc" />
    <text
       xml:space="preserve"
       style="font-style:normal;font-weight:normal;font-size:18.3761px;line-height:1.25;font-family:sans-serif;fill:#ffffff;fill-opacity:1;stroke:none;stroke-width:0.459407"
       x="86.604759"
       y="197.20193"
       id="text3331"
       transform="scale(0.95588144,1.0461549)"><tspan
         sodipodi:role="line"
         id="tspan3329"
         style="fill:#ffffff;fill-opacity:1;stroke-width:0.459407"
         x="86.604759"
         y="197.20193">DISCONNECTED</tspan></text>
  </g>
</svg>
