<?xml version="1.0" encoding="UTF-8" standalone="no"?>
<!-- Created with Inkscape (http://www.inkscape.org/) -->

<svg
   width="32.865364mm"
   height="5.6940522mm"
   viewBox="0 0 32.865364 5.6940522"
   version="1.1"
   id="svg2183"
   sodipodi:docname="start-select.svg"
   inkscape:version="1.1.1 (c3084ef, 2021-09-22)"
   xmlns:inkscape="http://www.inkscape.org/namespaces/inkscape"
   xmlns:sodipodi="http://sodipodi.sourceforge.net/DTD/sodipodi-0.dtd"
   xmlns="http://www.w3.org/2000/svg"
   xmlns:svg="http://www.w3.org/2000/svg">
  <sodipodi:namedview
     id="namedview2185"
     pagecolor="#ffffff"
     bordercolor="#666666"
     borderopacity="1.0"
     inkscape:pageshadow="2"
     inkscape:pageopacity="0.0"
     inkscape:pagecheckerboard="0"
     inkscape:document-units="mm"
     showgrid="false"
     inkscape:zoom="4.1414455"
     inkscape:cx="3.9841162"
     inkscape:cy="-37.547277"
     inkscape:window-width="2560"
     inkscape:window-height="1395"
     inkscape:window-x="0"
     inkscape:window-y="23"
     inkscape:window-maximized="1"
     inkscape:current-layer="layer1" />
  <defs
     id="defs2180" />
  <g
     inkscape:label="Capa 1"
     inkscape:groupmode="layer"
     id="layer1"
     transform="translate(-108.14536,-132.42732)">
    <path
       style="fill:#ffffff;fill-opacity:1;stroke:#e3e3e3;stroke-width:0.170341px;stroke-linecap:butt;stroke-linejoin:miter;stroke-opacity:1"
       d="m 110.29778,132.51251 h 10.2162 c 0,0 2.0139,-0.0465 2.25392,2.81704 0,0 -0.0528,2.49029 -2.18722,2.63037 h -10.33626 c 0,0 -1.66866,-0.10852 -2.0139,-2.42799 -0.001,-0.009 0.11794,-3.01942 2.06726,-3.01942 z"
       id="path3952-0-0"
       sodipodi:nodetypes="sccccss" />
    <path
       style="fill:#ffffff;fill-opacity:1;stroke:#e3e3e3;stroke-width:0.170341px;stroke-linecap:butt;stroke-linejoin:miter;stroke-opacity:1"
       d="m 128.45532,132.58881 h 10.21626 c 0,0 2.0139,-0.0465 2.2539,2.81703 0,0 -0.0528,2.49029 -2.18721,2.63036 h -10.3363 c 0,0 -1.66865,-0.10835 -2.0139,-2.428 -0.001,-0.009 0.11801,-3.01939 2.06725,-3.01939 z"
       id="path3952-0-9-2"
       sodipodi:nodetypes="sccccss" />
  </g>
</svg>
